<?xml version="1.0" encoding="UTF-8"?>
<svg id="uuid-1cb82312-8b8f-42da-8620-e7a2476a998b" data-name="Layer 1" xmlns="http://www.w3.org/2000/svg" viewBox="0 0 393.85 382.39">
  <path d="m195.14,382.24c-31.25,0-62.51.39-93.76-.1-35.66-.56-64.1-15.66-84.16-45.24C5.85,320.16.46,301.15.33,280.88c-.18-29.05,0-58.11-.06-87.17C.22,165.03-.06,136.35.01,107.67c.06-24.49,6.35-47.22,21.67-66.65C42.46,14.65,69.85.45,103.57.18c40.16-.33,80.32.24,120.48.29,21.12.02,42.24-.05,63.35-.44,21.87-.41,41.62,6.08,59.85,17.63,18.16,11.5,30.27,27.97,38.47,47.65,5.44,13.07,7.85,26.63,7.87,40.68.1,57.99.42,115.98.14,173.97-.16,34.28-13.83,62.49-41.87,82.56-17.62,12.61-37.83,19.32-59.7,19.49-32.34.26-64.68.07-97.02.07,0,.06,0,.12,0,.18Zm.66-363.68v.14c-27.96,0-55.92.07-83.89-.02-20.21-.07-38.9,4.7-55.41,16.77-24.01,17.54-36.47,41.05-36.6,70.9-.23,55.43-.4,110.86-.63,166.29-.06,13.65,2.97,26.58,8.44,39.06,7.41,16.9,19.05,29.87,35.01,39.14,15.17,8.81,31.58,13.03,48.95,13.06,35.89.06,71.78-.33,107.67-.49,23.44-.1,46.89-.08,70.33-.19,3.29-.02,6.61-.2,9.85-.74,41.41-6.83,71.99-36.95,74.72-80.74.77-12.4.15-24.88.17-37.33.09-43.1.21-86.2.24-129.3,0-6.34.09-12.74-.69-19.01-4.45-35.96-31.97-66.76-67.41-74.52-10.38-2.27-21.3-2.72-31.98-2.88-26.25-.39-52.5-.13-78.76-.13Z" stroke-width="0"/>
  <path d="m195.8,18.56c26.25,0,52.51-.26,78.76.13,10.69.16,21.6.61,31.98,2.88,35.44,7.76,62.96,38.56,67.41,74.52.78,6.27.69,12.67.69,19.01-.03,43.1-.15,86.2-.24,129.3-.03,12.45.6,24.93-.17,37.33-2.73,43.79-33.3,73.91-74.72,80.74-3.24.53-6.56.72-9.85.74-23.44.11-46.89.09-70.33.19-35.89.15-71.78.55-107.67.49-17.36-.03-33.77-4.24-48.95-13.06-15.96-9.27-27.6-22.24-35.01-39.14-5.47-12.47-8.49-25.4-8.44-39.06.23-55.43.4-110.86.63-166.29.13-29.84,12.59-53.36,36.6-70.9,16.51-12.06,35.2-16.83,55.41-16.77,27.96.09,55.92.02,83.89.02v-.14Zm-.37,330.75s0,.03,0,.04c1.71,0,3.42,0,5.12,0,28.45.11,56.89.37,85.34.23,6.77-.03,13.71-.7,20.27-2.31,12.46-3.04,24.18-8.12,32.98-17.89,14.95-16.6,21.9-36.12,21.52-58.6-.62-36.6-.73-73.22-.8-109.83-.04-19.29.56-38.57.67-57.86.08-13.99-4.19-26.82-12.32-38.05-15.94-22.01-37.53-33.5-64.97-33.46-21.48.03-42.96-.05-64.44,0-13.06.03-26.12.28-39.18.35-24.79.12-49.57.12-74.36.3-10.79.08-21.17,2.77-30.71,7.49-21.21,10.5-34.17,27.77-39.5,50.78-.69,2.96-1.42,6.02-1.37,9.02.36,25.14.84,50.27,1.43,75.4.18,7.67,1.4,15.36,1.11,23-.86,23.29-2.18,46.55-3.39,69.83-.93,17.82,3.87,34.08,13.46,48.96,12.72,19.74,31.22,30.77,54.31,32.08,23,1.3,46.12.47,69.19.55,8.54.03,17.09,0,25.63,0Z" fill="#fff" stroke-width="0"/>
  <rect x="36.5" y="34.17" width="320.47" height="315.14" rx="75.98" ry="75.98" stroke-width="0"/>
  <path d="m294.08,190.36c0,26.52.35,53.04-.14,79.55-.27,14.57-7.72,25.35-20.79,32.05-6.35,3.26-13.08,4.23-20.21,4.15-28.06-.3-56.13-.35-84.2-.42-7.66-.02-15.34.59-22.98.22-14.12-.68-33.46-11.16-35.53-31.6-1.01-9.98-.69-20.11-.71-30.17-.09-44.68-.21-89.37-.02-134.05.06-15.08,7.58-28.22,22.53-35.02,7.47-3.4,15.24-3.95,23.19-3.93,21.61.05,43.22.19,64.83.17,11.45,0,22.9-.52,34.34-.36,22.3.3,39.34,17.28,39.54,39.59.23,26.6.05,53.21.05,79.81.03,0,.07,0,.1,0Zm-11.99-.58s.05,0,.08,0c0-26.09.02-52.18-.03-78.27,0-2.39-.23-4.83-.78-7.15-2.96-12.64-14.08-21.49-27.18-21.48-13.09,0-26.17.31-39.26.35-22.56.07-45.12-.17-67.68.1-14.26.17-25.65,11.83-25.73,26.05-.12,20.32.09,40.64.09,60.96,0,32.72-.14,65.44-.04,98.16.02,6.55,2.45,12.5,6.93,17.37,5.1,5.55,11.64,8.21,19.11,8.26,16.27.12,32.55.06,48.82.07,20.92,0,41.85.14,62.77-.12,3.35-.04,7.04-1.24,9.94-2.97,8.37-5.01,13-12.44,12.97-22.53-.07-26.26-.02-52.52-.02-78.79Z" fill="#fff" stroke-width="0"/>
  <path d="m129.21,317.71c4.15-.84,7.65-1.62,11.18-2.24,3.46-.61,6.94-1.17,10.43-1.55,15.97-1.75,31.99-.49,47.98-.66.26,0,.53-.04.77.01.47.1.93.26,1.39.39-.37.29-.69.71-1.1.85-5.04,1.7-10,3.76-15.17,4.93-12.45,2.82-25,5.25-37.52,7.78-3.95.8-7.9,1.85-11.9,2.07-20.76,1.13-38.35-10.31-42.75-31.46-6.89-33.14-14.16-66.21-21.15-99.33-4.89-23.2-9.97-46.37-14.2-69.7-2.36-13.05,3.23-27.54,16.63-35.71,8.05-4.91,17.1-6.62,26.05-8.7,2.67-.62,5.42-.94,8.14-1.37.4-.06.82.07,1.24.12-.13.37-.2.76-.38,1.09-1.66,3.09-3.45,6.11-4.95,9.28-.74,1.56-1.62,2.39-3.32,2.78-4.44,1-8.88,2.03-13.23,3.34-13.48,4.06-20.69,16.58-17.86,30.67,6.15,30.61,12.27,61.22,18.42,91.83,4.81,23.95,9.55,47.91,14.47,71.83,1.93,9.4,7.33,16.53,15.89,20.78,3.42,1.7,7.51,2.07,10.92,2.95Z" fill="#fff" stroke-width="0"/>
  <path d="m301.91,240.07c.3-9.62.24-19.27,1.07-28.84.4-4.7,2.59-9.22,3.73-13.87,5.49-22.27,10.89-44.56,16.37-66.83,1.59-6.47,2.84-12.88,1.11-19.58-2.56-9.91-12.61-18.86-22.81-19.8-2.38-.22-3.82-1.2-5.05-3.26-2.24-3.74-4.84-7.27-7.28-10.88-.18-.27-.34-.55-.52-.82.31-.05.63-.19.92-.15,13.28,2.23,26.7,4.24,36.6,14.72,9.3,9.85,13.22,21.53,10.22,34.9-5.16,22.99-10.8,45.86-16.04,68.83-5.1,22.37-11.24,44.52-14.8,67.23-.21,1.35-.61,2.68-1.01,3.99-.16.54-.56,1.01-.84,1.5-.15-.52-.4-1.05-.42-1.57-.13-3.61-.26-7.23-.29-10.84-.05-4.9-.01-9.8-.01-14.71-.31,0-.63-.01-.94-.02Z" fill="#fff" stroke-width="0"/>
  <path d="m87.06,136.09c-.43,0-.86,0-1.29,0-5.37-.09-5.54-.15-7.19-5.32-.99-3.09-2.16-6.2-2.51-9.39-.57-5.19,3.11-10.72,7.86-12.74,4.3-1.83,9.91-.44,13.65,3.4,4.3,4.4,4.79,10.11,4.45,15.64-.19,3.16-3.08,5.59-6.18,6.73-2.78,1.02-5.78,1.42-8.69,2.1l-.1-.41Zm1.83-20.66c-3.12.05-5.21,2.27-5.18,5.49.04,3.51,2.32,6.16,5.27,6.13,2.76-.03,5.01-2.26,4.92-4.9-.12-3.63-2.45-6.76-5.02-6.72Z" fill="#fff" stroke-width="0"/>
  <path d="m93.25,171.41c-1.8-.93-3.63-1.81-5.38-2.82-.88-.51-1.65-1.24-2.42-1.92-1.47-1.32-3.61-2.46-4.12-4.09-.37-1.17,1.51-3.01,2.3-4.58,2.29-4.52,4.57-9.04,6.78-13.6.69-1.42,1.18-1.5,2.29-.32,3.59,3.81,7.39,7.43,10.87,11.34.74.82.68,2.54.63,3.83-.08,1.93-.55,3.85-.72,5.79-.17,1.96-3.41,4.94-6.27,5.48-1.18.22-2.39.22-3.59.31-.12.2-.24.4-.36.6Z" fill="#fff" stroke-width="0"/>
  <path d="m210.67,62.7c-7.5.65-15.37,1.34-23.24,1.99-1.27.1-2.58.12-3.85-.03-3.9-.46-7.8-1.02-11.69-1.57-.57-.08-1.11-.32-1.67-.48.32-.47.56-1.03.97-1.41,5.69-5.24,12.52-7.91,20.1-6.88,8.13,1.11,16.13,3.2,24.16,5,3.17.71,6.26,1.78,9.38,2.71.3.09.57.29.85.45-.32.07-.63.21-.95.21-4.56.01-9.11,0-14.07,0Z" fill="#fff" stroke-width="0"/>
  <path d="m269.1,318.02c-3.11-.51-7.08-1.15-11.05-1.82-.28-.05-.51-.33-.76-.5.3-.15.58-.34.9-.44,2.93-.98,5.81-2.19,8.8-2.87,14.48-3.29,24.23-12.69,32.18-24.5.36-.54.83-1.01,1.25-1.52.01.7.18,1.44,0,2.1-2.28,8.85-5.22,17.34-13.15,22.97-5.18,3.68-10.71,6.45-18.18,6.59Z" fill="#fff" stroke-width="0"/>
  <path d="m201.15,240.2c-7.32,0-14.63.01-21.95-.02-.69,0-1.38-.29-2.07-.45.34-.67.56-1.44,1.03-2,3.25-3.89,6.65-7.67,9.82-11.63,4.92-6.14,9.19-12.67,11.09-20.47.26-1.09.57-2.18.67-3.28.07-.79-.18-1.6-.29-2.41-.7.37-1.54.6-2.08,1.13-2.62,2.62-5.29,5.19-7.68,8.01-6.09,7.18-13.78,9.04-22.58,6.83-8.83-2.22-14.49-7.99-16.99-16.69-4.25-14.78,5.49-29.04,20.82-30.34,3.02-.26,6.13.59,9.19.93.32.04.64.11.96.16-.08-.37-.07-.78-.24-1.1-4.44-8.48-3.87-16.68,2.04-24.13,6.25-7.87,14.69-10.52,24.44-8.46,14.02,2.96,21.86,16.89,17.32,30.43-.22.65-.48,1.28-.69,1.94-.13.39-.18.81-.27,1.22.47-.05.96-.03,1.41-.17,14.9-4.44,27.84,7.71,29.14,21,1.33,13.59-11.55,29.16-28.36,25.45-5.41-1.19-9.63-4.44-13.41-8.3-2.29-2.33-4.53-4.72-6.73-7.14-1.12-1.23-1.86-.86-1.9.55-.06,1.93-.2,4.05.49,5.77,1.64,4.14,3.27,8.43,5.77,12.05,4.53,6.55,9.71,12.67,14.61,18.97.36.46.67.95,1,1.42-.62.17-1.24.48-1.86.48-7.57.03-15.15.02-22.72.02,0,.08,0,.16,0,.24Z" fill="#fff" stroke-width="0"/>
  <path d="m259.23,257.25c4.11.25,8.23.44,12.33.8.61.05,1.6.85,1.64,1.37.43,5.12,1.12,10.28.88,15.38-.23,4.95-5.19,9.61-10.03,10.54-4.89.93-9.27-1.18-12.21-5.79-1.74-2.73-3.03-5.52-2.83-8.91.12-2.03.72-2.93,2.89-2.9,3.92.05,3.92-.06,4.96,3.68,1.26,4.54,2.51,5.74,5.73,5.72,2.16-.01,3.27-1.23,4.01-3.02.06-.15.06-.34.1-.51,1.3-5.9-.22-7.73-6.28-7.58-3.01.08-6.02.06-9.03.19-1.3.06-1.76-.28-1.82-1.68-.31-6.97-.36-6.97,6.53-7.03,1.03,0,2.06,0,3.1,0,0-.09,0-.17.01-.26Z" fill="#fff" stroke-width="0"/>
  <path d="m155.14,111.9c0,2.47-.03,4.44.01,6.41.03,1.33-.54,1.79-1.85,1.76-4.34-.07-8.7.13-13.03-.12-3.36-.2-6.24-1.69-8.26-4.57-3.46-4.94-4.3-16.11,2.72-20.94,7.63-5.26,18.82-.3,19.81,8.95.32,2.98.43,5.99.6,8.5Zm-7.21-4.82c-.94-1.92-1.66-4-2.89-5.71-1.2-1.66-3.5-2.29-5.05-1.13-1.37,1.03-2.37,3.08-2.71,4.83-.43,2.25.45,4.42,2.72,5.63,3.82,2.04,7.3.44,7.93-3.63Z" fill="#fff" stroke-width="0"/>
  <path d="m142.22,155.63c-2.31.66-3.77-.46-5.36-2.42-1.97-2.44-4.68-4.26-6.98-6.44-2.9-2.74-2.72-2.81-.22-5.75,2.15-2.54,3.8-5.5,5.87-8.12,1.54-1.95,3.4-3.64,5.11-5.44,1.68,1.58,3.41,3.11,5.03,4.75,3.49,3.53,6.94,7.1,10.34,10.71.27.29.22,1.35-.07,1.61-2.41,2.15-4.93,4.17-7.36,6.3-.37.33-.68,1.03-.61,1.5.43,2.85-1.32,3.27-3.5,3.29-.69,0-1.38,0-2.25,0Z" fill="#fff" stroke-width="0"/>
  <path d="m277.24,237.47c-.3.25-.64.47-.91.75-3.54,3.7-7.15,7.35-10.58,11.16-1.26,1.4-1.94,1.69-3.34.15-3.96-4.37-8.13-8.56-12.12-12.9-.44-.47-.65-1.84-.32-2.22,3.98-4.61,8.08-9.11,12.19-13.6.19-.21,1.01-.22,1.18-.02,4.52,5.26,8.99,10.57,13.46,15.87.16.19.24.44.44.82Z" fill="#fff" stroke-width="0"/>
</svg>