<?xml version="1.0" encoding="utf-8"?>
<!-- Generator: Adobe Illustrator 28.0.0, SVG Export Plug-In . SVG Version: 6.00 Build 0)  -->
<svg version="1.1" id="Layer_1" xmlns="http://www.w3.org/2000/svg" xmlns:xlink="http://www.w3.org/1999/xlink" x="0px" y="0px"
	 viewBox="0 0 800 800" style="enable-background:new 0 0 800 800;" xml:space="preserve">
<style type="text/css">
	.st0{fill:#E6EEF4;}
	.st1{fill:#D71E00;}
</style>
<g>
	<path class="st0" d="M662.1,0H137.9c-15.2,0-27.6,12.3-27.6,27.6v744.8c0,15.2,12.3,27.6,27.6,27.6h524.1
		c15.2,0,27.6-12.3,27.6-27.6V27.6C689.7,12.3,677.3,0,662.1,0"/>
	<g>
		<path class="st1" d="M193.1,151.7c30.5,0,55.2-24.7,55.2-55.2s-24.7-55.2-55.2-55.2c-6.3,0-12.5,1.1-18.4,3.2
			c-8.2,2.9-15.4,7.8-22.2,14.7c-5.4,5.4-5.4,14.1,0,19.5c5.4,5.4,14.1,5.4,19.5,0c4.1-4.1,8-6.8,11.9-8.2c2.9-1,6-1.6,9.2-1.6
			c15.2,0,27.6,12.3,27.6,27.6s-12.3,27.6-27.6,27.6h-13.8c-7.6,0-13.8,6.2-13.8,13.8c0,7.6,6.2,13.8,13.8,13.8L193.1,151.7
			L193.1,151.7z"/>
		<path class="st1" d="M193.1,234.5c30.5,0,55.2-24.7,55.2-55.2s-24.7-55.2-55.2-55.2h-13.8c-7.6,0-13.8,6.2-13.8,13.8
			c0,7.6,6.2,13.8,13.8,13.8h13.8c15.2,0,27.6,12.3,27.6,27.6c0,15.2-12.3,27.6-27.6,27.6c-7.5,0-14.8-3.4-21-9.7
			c-5.4-5.4-14.1-5.4-19.5,0c-5.4,5.4-5.4,14.1,0,19.5C163.7,227.9,177.8,234.5,193.1,234.5z"/>
	</g>
</g>
<path class="st1" d="M405,402.2c14.9-37.8,46.3-69,85.8-69c33.2,0,62.8,15.6,82.8,41.4c25,32.3,42.7,104.3-12.1,159.1
	C533.7,561.4,405,691.8,405,691.8S276.3,561.4,248.5,533.6c-54.8-54.8-37.1-126.7-12.1-159.1c19.9-25.8,49.5-41.4,82.8-41.4
	C358.7,333.2,390.1,364.3,405,402.2"/>
</svg>
