<?xml version="1.0" encoding="utf-8"?>
<!-- Generator: Adobe Illustrator 28.0.0, SVG Export Plug-In . SVG Version: 6.00 Build 0)  -->
<svg version="1.1" id="Layer_1" xmlns="http://www.w3.org/2000/svg" xmlns:xlink="http://www.w3.org/1999/xlink" x="0px" y="0px"
	 viewBox="0 0 800 800" style="enable-background:new 0 0 800 800;" xml:space="preserve">
<style type="text/css">
	.st0{fill:#E6EEF4;}
	.st1{fill:#D71E00;}
</style>
<g>
	<path class="st0" d="M662.1,0H137.9c-15.2,0-27.6,12.3-27.6,27.6v744.8c0,15.2,12.3,27.6,27.6,27.6h524.1
		c15.2,0,27.6-12.3,27.6-27.6V27.6C689.7,12.3,677.3,0,662.1,0"/>
	<g>
		<path class="st1" d="M234.5,69c7.6,0,13.8-6.2,13.8-13.8s-6.2-13.8-13.8-13.8h-69c-7.6,0-13.8,6.2-13.8,13.8S157.9,69,165.5,69
			H234.5z"/>
		<path class="st1" d="M151.7,124.1c0,7.6,6.2,13.8,13.8,13.8c7.6,0,13.8-6.2,13.8-13.8v-69c0-7.6-6.2-13.8-13.8-13.8
			c-7.6,0-13.8,6.2-13.8,13.8V124.1z"/>
		<path class="st1" d="M197.7,210c31.3,0,56.7-25.4,56.7-56.7S229,96.6,197.7,96.6c-16.5,0-31.9,7.1-42.5,19.2
			c-5,5.7-4.5,14.4,1.2,19.5c5.7,5,14.4,4.5,19.5-1.2c5.5-6.2,13.4-9.9,21.9-9.9c16.1,0,29.1,13,29.1,29.1s-13,29.1-29.1,29.1
			c-8.5,0-16.3-3.6-21.9-9.9c-5-5.7-13.8-6.3-19.5-1.2c-5.7,5-6.3,13.8-1.2,19.5C165.9,202.9,181.2,210,197.7,210z"/>
	</g>
</g>
<path class="st1" d="M392.4,390.2c14.9-37.8,46.3-69,85.8-69c33.2,0,62.8,15.6,82.8,41.4c25,32.3,42.7,104.3-12.1,159.1
	c-27.8,27.8-156.5,158.2-156.5,158.2S263.8,549.4,236,521.6c-54.8-54.8-37.1-126.7-12.1-159.1c19.9-25.8,49.5-41.4,82.8-41.4
	C346.1,321.2,377.6,352.3,392.4,390.2"/>
</svg>
