<?xml version="1.0" encoding="utf-8"?>
<!-- Generator: Adobe Illustrator 28.0.0, SVG Export Plug-In . SVG Version: 6.00 Build 0)  -->
<svg version="1.1" id="Layer_1" xmlns="http://www.w3.org/2000/svg" xmlns:xlink="http://www.w3.org/1999/xlink" x="0px" y="0px"
	 viewBox="0 0 800 800" style="enable-background:new 0 0 800 800;" xml:space="preserve">
<style type="text/css">
	.st0{fill:#E6EEF4;}
	.st1{fill:#D71E00;}
</style>
<g>
	<path class="st0" d="M662.1,0H137.9c-15.2,0-27.6,12.3-27.6,27.6v744.8c0,15.2,12.3,27.6,27.6,27.6h524.1
		c15.2,0,27.6-12.3,27.6-27.6V27.6C689.7,12.3,677.3,0,662.1,0"/>
	<g>
		<path class="st1" d="M154.5,157.2c-4.6,6.1-3.3,14.7,2.8,19.3c6.1,4.6,14.7,3.3,19.3-2.8l82.8-110.3c4.6-6.1,3.3-14.7-2.8-19.3
			c-6.1-4.6-14.7-3.3-19.3,2.8L154.5,157.2z"/>
		<path class="st1" d="M234.5,220.7c0,7.6,6.2,13.8,13.8,13.8s13.8-6.2,13.8-13.8V55.2c0-7.6-6.2-13.8-13.8-13.8
			s-13.8,6.2-13.8,13.8V220.7z"/>
		<path class="st1" d="M165.5,151.7c-7.6,0-13.8,6.2-13.8,13.8c0,7.6,6.2,13.8,13.8,13.8h110.3c7.6,0,13.8-6.2,13.8-13.8
			c0-7.6-6.2-13.8-13.8-13.8H165.5z"/>
		<path class="st1" d="M275.9,234.5c7.6,0,13.8-6.2,13.8-13.8s-6.2-13.8-13.8-13.8h-55.2c-7.6,0-13.8,6.2-13.8,13.8
			s6.2,13.8,13.8,13.8H275.9z"/>
	</g>
</g>
<path class="st1" d="M400,396.2c14.9-37.8,46.3-69,85.8-69c33.2,0,62.8,15.6,82.8,41.4c25,32.3,42.7,104.3-12.1,159.1
	C528.7,555.4,400,685.8,400,685.8S271.3,555.4,243.5,527.6c-54.8-54.8-37.1-126.7-12.1-159.1c19.9-25.8,49.5-41.4,82.8-41.4
	C353.7,327.2,385.1,358.3,400,396.2"/>
</svg>
